G04 MADE WITH FRITZING*
G04 WWW.FRITZING.ORG*
G04 DOUBLE SIDED*
G04 HOLES PLATED*
G04 CONTOUR ON CENTER OF CONTOUR VECTOR*
%ASAXBY*%
%FSLAX23Y23*%
%MOIN*%
%OFA0B0*%
%SFA1.0B1.0*%
%ADD10R,0.511992X0.906689X0.495992X0.890689*%
%ADD11C,0.008000*%
%ADD12C,0.010000*%
%ADD13C,0.005000*%
%ADD14R,0.001000X0.001000*%
%LNSILK1*%
G90*
G70*
G54D11*
X4Y903D02*
X508Y903D01*
X508Y4D01*
X4Y4D01*
X4Y903D01*
D02*
G54D12*
X426Y521D02*
X26Y521D01*
D02*
X26Y521D02*
X26Y121D01*
D02*
X26Y121D02*
X426Y121D01*
D02*
X426Y521D02*
X426Y371D01*
D02*
X426Y271D02*
X426Y121D01*
D02*
X326Y121D02*
X26Y121D01*
D02*
X26Y121D02*
X26Y21D01*
D02*
X26Y21D02*
X326Y21D01*
D02*
X326Y21D02*
X326Y121D01*
G54D13*
D02*
X291Y121D02*
X326Y86D01*
G54D12*
D02*
X326Y821D02*
X326Y521D01*
D02*
X326Y521D02*
X426Y521D01*
D02*
X426Y521D02*
X426Y821D01*
D02*
X426Y821D02*
X326Y821D01*
G54D13*
D02*
X326Y786D02*
X361Y821D01*
G54D12*
D02*
X204Y593D02*
X125Y593D01*
D02*
X282Y790D02*
X282Y622D01*
D02*
X46Y790D02*
X46Y622D01*
D02*
X204Y829D02*
X125Y829D01*
D02*
X184Y711D02*
X145Y711D01*
D02*
X164Y691D02*
X164Y731D01*
G54D14*
X452Y890D02*
X455Y890D01*
X451Y889D02*
X456Y889D01*
X450Y888D02*
X456Y888D01*
X450Y887D02*
X457Y887D01*
X450Y886D02*
X457Y886D01*
X450Y885D02*
X457Y885D01*
X450Y884D02*
X457Y884D01*
X450Y883D02*
X457Y883D01*
X450Y882D02*
X457Y882D01*
X450Y881D02*
X457Y881D01*
X450Y880D02*
X457Y880D01*
X450Y879D02*
X457Y879D01*
X450Y878D02*
X457Y878D01*
X343Y877D02*
X360Y877D01*
X390Y877D02*
X393Y877D01*
X420Y877D02*
X423Y877D01*
X444Y877D02*
X474Y877D01*
X341Y876D02*
X362Y876D01*
X389Y876D02*
X394Y876D01*
X419Y876D02*
X424Y876D01*
X443Y876D02*
X475Y876D01*
X340Y875D02*
X363Y875D01*
X388Y875D02*
X394Y875D01*
X418Y875D02*
X424Y875D01*
X443Y875D02*
X475Y875D01*
X339Y874D02*
X364Y874D01*
X388Y874D02*
X395Y874D01*
X418Y874D02*
X425Y874D01*
X443Y874D02*
X475Y874D01*
X338Y873D02*
X366Y873D01*
X388Y873D02*
X395Y873D01*
X418Y873D02*
X425Y873D01*
X443Y873D02*
X475Y873D01*
X337Y872D02*
X367Y872D01*
X388Y872D02*
X395Y872D01*
X418Y872D02*
X425Y872D01*
X443Y872D02*
X475Y872D01*
X336Y871D02*
X368Y871D01*
X388Y871D02*
X395Y871D01*
X418Y871D02*
X425Y871D01*
X444Y871D02*
X474Y871D01*
X335Y870D02*
X346Y870D01*
X357Y870D02*
X368Y870D01*
X388Y870D02*
X395Y870D01*
X418Y870D02*
X425Y870D01*
X450Y870D02*
X457Y870D01*
X335Y869D02*
X344Y869D01*
X360Y869D02*
X369Y869D01*
X388Y869D02*
X395Y869D01*
X418Y869D02*
X425Y869D01*
X450Y869D02*
X457Y869D01*
X334Y868D02*
X343Y868D01*
X361Y868D02*
X369Y868D01*
X388Y868D02*
X395Y868D01*
X418Y868D02*
X425Y868D01*
X450Y868D02*
X457Y868D01*
X334Y867D02*
X341Y867D01*
X362Y867D02*
X370Y867D01*
X388Y867D02*
X395Y867D01*
X418Y867D02*
X425Y867D01*
X450Y867D02*
X457Y867D01*
X334Y866D02*
X341Y866D01*
X363Y866D02*
X370Y866D01*
X388Y866D02*
X395Y866D01*
X418Y866D02*
X425Y866D01*
X450Y866D02*
X457Y866D01*
X333Y865D02*
X340Y865D01*
X363Y865D02*
X370Y865D01*
X388Y865D02*
X395Y865D01*
X418Y865D02*
X425Y865D01*
X450Y865D02*
X457Y865D01*
X333Y864D02*
X340Y864D01*
X363Y864D02*
X370Y864D01*
X388Y864D02*
X395Y864D01*
X418Y864D02*
X425Y864D01*
X450Y864D02*
X457Y864D01*
X333Y863D02*
X340Y863D01*
X363Y863D02*
X370Y863D01*
X388Y863D02*
X395Y863D01*
X418Y863D02*
X425Y863D01*
X450Y863D02*
X457Y863D01*
X333Y862D02*
X340Y862D01*
X363Y862D02*
X370Y862D01*
X388Y862D02*
X395Y862D01*
X418Y862D02*
X425Y862D01*
X450Y862D02*
X457Y862D01*
X333Y861D02*
X340Y861D01*
X363Y861D02*
X370Y861D01*
X388Y861D02*
X395Y861D01*
X418Y861D02*
X425Y861D01*
X450Y861D02*
X457Y861D01*
X333Y860D02*
X340Y860D01*
X363Y860D02*
X370Y860D01*
X388Y860D02*
X395Y860D01*
X418Y860D02*
X425Y860D01*
X450Y860D02*
X457Y860D01*
X333Y859D02*
X340Y859D01*
X363Y859D02*
X370Y859D01*
X388Y859D02*
X395Y859D01*
X418Y859D02*
X425Y859D01*
X450Y859D02*
X457Y859D01*
X333Y858D02*
X340Y858D01*
X363Y858D02*
X370Y858D01*
X388Y858D02*
X395Y858D01*
X418Y858D02*
X425Y858D01*
X450Y858D02*
X457Y858D01*
X333Y857D02*
X340Y857D01*
X363Y857D02*
X370Y857D01*
X389Y857D02*
X395Y857D01*
X418Y857D02*
X425Y857D01*
X450Y857D02*
X457Y857D01*
X333Y856D02*
X340Y856D01*
X363Y856D02*
X370Y856D01*
X389Y856D02*
X395Y856D01*
X418Y856D02*
X425Y856D01*
X450Y856D02*
X457Y856D01*
X333Y855D02*
X340Y855D01*
X363Y855D02*
X370Y855D01*
X389Y855D02*
X395Y855D01*
X418Y855D02*
X425Y855D01*
X450Y855D02*
X457Y855D01*
X333Y854D02*
X340Y854D01*
X363Y854D02*
X370Y854D01*
X389Y854D02*
X395Y854D01*
X418Y854D02*
X425Y854D01*
X450Y854D02*
X457Y854D01*
X333Y853D02*
X340Y853D01*
X363Y853D02*
X370Y853D01*
X389Y853D02*
X395Y853D01*
X418Y853D02*
X425Y853D01*
X450Y853D02*
X457Y853D01*
X333Y852D02*
X340Y852D01*
X363Y852D02*
X370Y852D01*
X389Y852D02*
X395Y852D01*
X418Y852D02*
X425Y852D01*
X450Y852D02*
X457Y852D01*
X333Y851D02*
X340Y851D01*
X363Y851D02*
X370Y851D01*
X389Y851D02*
X395Y851D01*
X418Y851D02*
X425Y851D01*
X450Y851D02*
X457Y851D01*
X333Y850D02*
X340Y850D01*
X363Y850D02*
X370Y850D01*
X389Y850D02*
X395Y850D01*
X418Y850D02*
X425Y850D01*
X450Y850D02*
X457Y850D01*
X333Y849D02*
X340Y849D01*
X363Y849D02*
X370Y849D01*
X389Y849D02*
X395Y849D01*
X416Y849D02*
X425Y849D01*
X450Y849D02*
X457Y849D01*
X333Y848D02*
X340Y848D01*
X363Y848D02*
X370Y848D01*
X389Y848D02*
X395Y848D01*
X414Y848D02*
X425Y848D01*
X450Y848D02*
X457Y848D01*
X474Y848D02*
X478Y848D01*
X333Y847D02*
X340Y847D01*
X363Y847D02*
X370Y847D01*
X389Y847D02*
X395Y847D01*
X413Y847D02*
X425Y847D01*
X450Y847D02*
X457Y847D01*
X473Y847D02*
X479Y847D01*
X334Y846D02*
X341Y846D01*
X362Y846D02*
X370Y846D01*
X389Y846D02*
X396Y846D01*
X411Y846D02*
X425Y846D01*
X450Y846D02*
X457Y846D01*
X473Y846D02*
X479Y846D01*
X334Y845D02*
X342Y845D01*
X361Y845D02*
X369Y845D01*
X389Y845D02*
X396Y845D01*
X410Y845D02*
X425Y845D01*
X450Y845D02*
X457Y845D01*
X472Y845D02*
X479Y845D01*
X334Y844D02*
X343Y844D01*
X360Y844D02*
X369Y844D01*
X389Y844D02*
X396Y844D01*
X408Y844D02*
X425Y844D01*
X450Y844D02*
X457Y844D01*
X472Y844D02*
X479Y844D01*
X335Y843D02*
X344Y843D01*
X359Y843D02*
X369Y843D01*
X389Y843D02*
X397Y843D01*
X407Y843D02*
X425Y843D01*
X451Y843D02*
X458Y843D01*
X471Y843D02*
X479Y843D01*
X335Y842D02*
X368Y842D01*
X390Y842D02*
X425Y842D01*
X451Y842D02*
X479Y842D01*
X336Y841D02*
X367Y841D01*
X390Y841D02*
X425Y841D01*
X451Y841D02*
X478Y841D01*
X337Y840D02*
X366Y840D01*
X391Y840D02*
X415Y840D01*
X418Y840D02*
X425Y840D01*
X452Y840D02*
X477Y840D01*
X338Y839D02*
X365Y839D01*
X391Y839D02*
X413Y839D01*
X418Y839D02*
X425Y839D01*
X453Y839D02*
X477Y839D01*
X339Y838D02*
X364Y838D01*
X392Y838D02*
X412Y838D01*
X418Y838D02*
X424Y838D01*
X454Y838D02*
X476Y838D01*
X341Y837D02*
X363Y837D01*
X394Y837D02*
X410Y837D01*
X418Y837D02*
X424Y837D01*
X455Y837D02*
X475Y837D01*
X342Y836D02*
X361Y836D01*
X395Y836D02*
X408Y836D01*
X419Y836D02*
X424Y836D01*
X456Y836D02*
X473Y836D01*
X345Y835D02*
X358Y835D01*
X398Y835D02*
X406Y835D01*
X420Y835D02*
X422Y835D01*
X459Y835D02*
X470Y835D01*
X447Y782D02*
X488Y782D01*
X445Y781D02*
X490Y781D01*
X444Y780D02*
X491Y780D01*
X444Y779D02*
X492Y779D01*
X443Y778D02*
X492Y778D01*
X443Y777D02*
X492Y777D01*
X443Y776D02*
X492Y776D01*
X443Y775D02*
X492Y775D01*
X443Y774D02*
X492Y774D01*
X443Y773D02*
X492Y773D01*
X443Y772D02*
X492Y772D01*
X444Y771D02*
X491Y771D01*
X444Y770D02*
X491Y770D01*
X445Y769D02*
X490Y769D01*
X448Y768D02*
X487Y768D01*
X466Y695D02*
X467Y695D01*
X464Y694D02*
X469Y694D01*
X463Y693D02*
X470Y693D01*
X462Y692D02*
X471Y692D01*
X462Y691D02*
X471Y691D01*
X462Y690D02*
X471Y690D01*
X462Y689D02*
X471Y689D01*
X462Y688D02*
X471Y688D01*
X462Y687D02*
X471Y687D01*
X462Y686D02*
X471Y686D01*
X462Y685D02*
X471Y685D01*
X462Y684D02*
X471Y684D01*
X462Y683D02*
X471Y683D01*
X462Y682D02*
X471Y682D01*
X462Y681D02*
X471Y681D01*
X462Y680D02*
X471Y680D01*
X462Y679D02*
X471Y679D01*
X462Y678D02*
X471Y678D01*
X462Y677D02*
X471Y677D01*
X462Y676D02*
X471Y676D01*
X445Y675D02*
X488Y675D01*
X444Y674D02*
X489Y674D01*
X443Y673D02*
X490Y673D01*
X442Y672D02*
X490Y672D01*
X442Y671D02*
X491Y671D01*
X442Y670D02*
X491Y670D01*
X442Y669D02*
X491Y669D01*
X443Y668D02*
X490Y668D01*
X443Y667D02*
X489Y667D01*
X445Y666D02*
X488Y666D01*
X462Y665D02*
X471Y665D01*
X462Y664D02*
X471Y664D01*
X462Y663D02*
X471Y663D01*
X462Y662D02*
X471Y662D01*
X462Y661D02*
X471Y661D01*
X462Y660D02*
X471Y660D01*
X462Y659D02*
X471Y659D01*
X462Y658D02*
X471Y658D01*
X462Y657D02*
X471Y657D01*
X462Y656D02*
X471Y656D01*
X462Y655D02*
X471Y655D01*
X462Y654D02*
X471Y654D01*
X462Y653D02*
X471Y653D01*
X462Y652D02*
X471Y652D01*
X462Y651D02*
X471Y651D01*
X462Y650D02*
X471Y650D01*
X462Y649D02*
X471Y649D01*
X463Y648D02*
X470Y648D01*
X463Y647D02*
X469Y647D01*
X465Y646D02*
X468Y646D01*
X450Y615D02*
X479Y615D01*
X448Y614D02*
X482Y614D01*
X446Y613D02*
X484Y613D01*
X445Y612D02*
X485Y612D01*
X444Y611D02*
X486Y611D01*
X443Y610D02*
X487Y610D01*
X443Y609D02*
X488Y609D01*
X442Y608D02*
X489Y608D01*
X442Y607D02*
X489Y607D01*
X442Y606D02*
X489Y606D01*
X442Y605D02*
X451Y605D01*
X479Y605D02*
X490Y605D01*
X441Y604D02*
X451Y604D01*
X480Y604D02*
X490Y604D01*
X442Y603D02*
X451Y603D01*
X481Y603D02*
X490Y603D01*
X442Y602D02*
X452Y602D01*
X481Y602D02*
X490Y602D01*
X442Y601D02*
X452Y601D01*
X481Y601D02*
X490Y601D01*
X442Y600D02*
X453Y600D01*
X481Y600D02*
X490Y600D01*
X443Y599D02*
X454Y599D01*
X482Y599D02*
X489Y599D01*
X443Y598D02*
X455Y598D01*
X483Y598D02*
X488Y598D01*
X444Y597D02*
X456Y597D01*
X485Y597D02*
X487Y597D01*
X444Y596D02*
X456Y596D01*
X445Y595D02*
X457Y595D01*
X446Y594D02*
X458Y594D01*
X447Y593D02*
X459Y593D01*
X448Y592D02*
X459Y592D01*
X448Y591D02*
X460Y591D01*
X449Y590D02*
X461Y590D01*
X450Y589D02*
X462Y589D01*
X451Y588D02*
X463Y588D01*
X451Y587D02*
X463Y587D01*
X452Y586D02*
X464Y586D01*
X453Y585D02*
X465Y585D01*
X454Y584D02*
X466Y584D01*
X455Y583D02*
X466Y583D01*
X455Y582D02*
X467Y582D01*
X456Y581D02*
X468Y581D01*
X457Y580D02*
X469Y580D01*
X458Y579D02*
X470Y579D01*
X458Y578D02*
X470Y578D01*
X459Y577D02*
X471Y577D01*
X460Y576D02*
X472Y576D01*
X461Y575D02*
X473Y575D01*
X462Y574D02*
X473Y574D01*
X462Y573D02*
X474Y573D01*
X463Y572D02*
X475Y572D01*
X464Y571D02*
X476Y571D01*
X465Y570D02*
X477Y570D01*
X465Y569D02*
X477Y569D01*
X466Y568D02*
X478Y568D01*
X467Y567D02*
X479Y567D01*
X468Y566D02*
X480Y566D01*
X468Y565D02*
X480Y565D01*
X469Y564D02*
X481Y564D01*
X470Y563D02*
X482Y563D01*
X471Y562D02*
X483Y562D01*
X472Y561D02*
X484Y561D01*
X472Y560D02*
X484Y560D01*
X473Y559D02*
X485Y559D01*
X474Y558D02*
X486Y558D01*
X475Y557D02*
X487Y557D01*
X475Y556D02*
X487Y556D01*
X444Y555D02*
X448Y555D01*
X476Y555D02*
X488Y555D01*
X443Y554D02*
X449Y554D01*
X477Y554D02*
X489Y554D01*
X442Y553D02*
X450Y553D01*
X478Y553D02*
X489Y553D01*
X442Y552D02*
X450Y552D01*
X479Y552D02*
X490Y552D01*
X441Y551D02*
X451Y551D01*
X479Y551D02*
X490Y551D01*
X442Y550D02*
X451Y550D01*
X480Y550D02*
X490Y550D01*
X442Y549D02*
X451Y549D01*
X481Y549D02*
X490Y549D01*
X442Y548D02*
X452Y548D01*
X481Y548D02*
X490Y548D01*
X442Y547D02*
X490Y547D01*
X442Y546D02*
X490Y546D01*
X443Y545D02*
X489Y545D01*
X443Y544D02*
X489Y544D01*
X444Y543D02*
X488Y543D01*
X445Y542D02*
X488Y542D01*
X446Y541D02*
X487Y541D01*
X447Y540D02*
X486Y540D01*
X449Y539D02*
X485Y539D01*
X451Y538D02*
X482Y538D01*
X354Y106D02*
X388Y106D01*
X353Y105D02*
X389Y105D01*
X351Y104D02*
X391Y104D01*
X350Y103D02*
X392Y103D01*
X350Y102D02*
X393Y102D01*
X349Y101D02*
X394Y101D01*
X348Y100D02*
X394Y100D01*
X348Y99D02*
X395Y99D01*
X348Y98D02*
X395Y98D01*
X348Y97D02*
X396Y97D01*
X348Y96D02*
X357Y96D01*
X386Y96D02*
X396Y96D01*
X348Y95D02*
X357Y95D01*
X387Y95D02*
X396Y95D01*
X348Y94D02*
X358Y94D01*
X387Y94D02*
X396Y94D01*
X348Y93D02*
X358Y93D01*
X387Y93D02*
X396Y93D01*
X348Y92D02*
X359Y92D01*
X387Y92D02*
X396Y92D01*
X348Y91D02*
X360Y91D01*
X388Y91D02*
X396Y91D01*
X349Y90D02*
X361Y90D01*
X389Y90D02*
X395Y90D01*
X350Y89D02*
X361Y89D01*
X390Y89D02*
X394Y89D01*
X350Y88D02*
X362Y88D01*
X351Y87D02*
X363Y87D01*
X352Y86D02*
X364Y86D01*
X353Y85D02*
X364Y85D01*
X353Y84D02*
X365Y84D01*
X354Y83D02*
X366Y83D01*
X355Y82D02*
X367Y82D01*
X356Y81D02*
X368Y81D01*
X356Y80D02*
X368Y80D01*
X357Y79D02*
X369Y79D01*
X358Y78D02*
X370Y78D01*
X359Y77D02*
X371Y77D01*
X360Y76D02*
X371Y76D01*
X360Y75D02*
X372Y75D01*
X361Y74D02*
X373Y74D01*
X362Y73D02*
X374Y73D01*
X363Y72D02*
X375Y72D01*
X363Y71D02*
X375Y71D01*
X364Y70D02*
X376Y70D01*
X365Y69D02*
X377Y69D01*
X366Y68D02*
X378Y68D01*
X367Y67D02*
X378Y67D01*
X367Y66D02*
X379Y66D01*
X368Y65D02*
X380Y65D01*
X369Y64D02*
X381Y64D01*
X370Y63D02*
X382Y63D01*
X370Y62D02*
X382Y62D01*
X371Y61D02*
X383Y61D01*
X372Y60D02*
X384Y60D01*
X373Y59D02*
X385Y59D01*
X374Y58D02*
X385Y58D01*
X374Y57D02*
X386Y57D01*
X375Y56D02*
X387Y56D01*
X376Y55D02*
X388Y55D01*
X377Y54D02*
X389Y54D01*
X377Y53D02*
X389Y53D01*
X378Y52D02*
X390Y52D01*
X379Y51D02*
X391Y51D01*
X380Y50D02*
X392Y50D01*
X380Y49D02*
X392Y49D01*
X381Y48D02*
X393Y48D01*
X350Y47D02*
X354Y47D01*
X382Y47D02*
X394Y47D01*
X349Y46D02*
X355Y46D01*
X383Y46D02*
X395Y46D01*
X348Y45D02*
X356Y45D01*
X384Y45D02*
X395Y45D01*
X348Y44D02*
X356Y44D01*
X384Y44D02*
X396Y44D01*
X348Y43D02*
X357Y43D01*
X385Y43D02*
X396Y43D01*
X348Y42D02*
X357Y42D01*
X386Y42D02*
X396Y42D01*
X348Y41D02*
X357Y41D01*
X387Y41D02*
X396Y41D01*
X348Y40D02*
X358Y40D01*
X387Y40D02*
X396Y40D01*
X348Y39D02*
X396Y39D01*
X348Y38D02*
X396Y38D01*
X349Y37D02*
X396Y37D01*
X349Y36D02*
X395Y36D01*
X350Y35D02*
X395Y35D01*
X351Y34D02*
X394Y34D01*
X352Y33D02*
X393Y33D01*
X353Y32D02*
X392Y32D01*
X354Y31D02*
X391Y31D01*
X356Y30D02*
X390Y30D01*
X361Y29D02*
X385Y29D01*
D02*
G04 End of Silk1*
M02*