G04 MADE WITH FRITZING*
G04 WWW.FRITZING.ORG*
G04 DOUBLE SIDED*
G04 HOLES PLATED*
G04 CONTOUR ON CENTER OF CONTOUR VECTOR*
%ASAXBY*%
%FSLAX23Y23*%
%MOIN*%
%OFA0B0*%
%SFA1.0B1.0*%
%ADD10C,0.075000*%
%ADD11C,0.078000*%
%ADD12R,0.075000X0.075000*%
%ADD13C,0.024000*%
%LNCOPPER0*%
G90*
G70*
G54D10*
X376Y471D03*
X376Y171D03*
X276Y471D03*
X276Y171D03*
X176Y471D03*
X176Y171D03*
X76Y471D03*
X76Y171D03*
G54D11*
X276Y71D03*
X176Y71D03*
X76Y71D03*
X376Y771D03*
X376Y671D03*
X376Y571D03*
G54D10*
X76Y583D03*
X76Y839D03*
X253Y583D03*
X253Y839D03*
G54D12*
X376Y471D03*
G54D13*
X76Y170D02*
X94Y149D01*
D02*
X76Y101D02*
X76Y170D01*
D02*
X176Y170D02*
X176Y101D01*
D02*
X195Y150D02*
X176Y170D01*
D02*
X176Y270D02*
X176Y199D01*
D02*
X376Y270D02*
X176Y270D01*
D02*
X376Y199D02*
X376Y270D01*
D02*
X276Y170D02*
X276Y101D01*
D02*
X296Y151D02*
X276Y170D01*
D02*
X270Y499D02*
X259Y555D01*
D02*
X77Y481D02*
X79Y499D01*
D02*
X76Y554D02*
X77Y481D01*
D02*
X175Y672D02*
X90Y814D01*
D02*
X349Y758D02*
X175Y672D01*
D02*
X175Y672D02*
X97Y602D01*
D02*
X475Y672D02*
X406Y671D01*
D02*
X475Y170D02*
X475Y672D01*
D02*
X404Y171D02*
X475Y170D01*
G04 End of Copper0*
M02*