G04 MADE WITH FRITZING*
G04 WWW.FRITZING.ORG*
G04 DOUBLE SIDED*
G04 HOLES PLATED*
G04 CONTOUR ON CENTER OF CONTOUR VECTOR*
%ASAXBY*%
%FSLAX23Y23*%
%MOIN*%
%OFA0B0*%
%SFA1.0B1.0*%
%ADD10C,0.075000*%
%ADD11C,0.078000*%
%ADD12R,0.075000X0.075000*%
%ADD13C,0.024000*%
%LNCOPPER0*%
G90*
G70*
G54D10*
X374Y475D03*
X374Y175D03*
X274Y475D03*
X274Y175D03*
X174Y475D03*
X174Y175D03*
X74Y475D03*
X74Y175D03*
G54D11*
X374Y775D03*
X374Y675D03*
X374Y575D03*
X174Y75D03*
X74Y75D03*
G54D10*
X74Y587D03*
X74Y843D03*
X251Y587D03*
X251Y843D03*
G54D12*
X374Y475D03*
G54D13*
X374Y75D02*
X204Y75D01*
D02*
X374Y146D02*
X374Y75D01*
D02*
X70Y168D02*
X58Y151D01*
D02*
X74Y446D02*
X70Y168D01*
D02*
X74Y174D02*
X57Y152D01*
D02*
X74Y105D02*
X74Y174D01*
D02*
X269Y503D02*
X257Y559D01*
D02*
X76Y485D02*
X78Y503D01*
D02*
X75Y559D02*
X76Y485D01*
D02*
X173Y676D02*
X89Y819D01*
D02*
X347Y762D02*
X173Y676D01*
D02*
X173Y676D02*
X96Y606D01*
D02*
X474Y174D02*
X474Y676D01*
D02*
X474Y676D02*
X404Y675D01*
D02*
X403Y175D02*
X474Y174D01*
D02*
X70Y168D02*
X73Y105D01*
G04 End of Copper0*
M02*